<svg width="181" height="37" viewBox="0 0 181 37" fill="none" xmlns="http://www.w3.org/2000/svg">
<path d="M17.5489 4.17705C17.8483 3.25574 19.1517 3.25574 19.4511 4.17705L22.1484 12.4785C22.2822 12.8905 22.6662 13.1695 23.0994 13.1695H31.828C32.7968 13.1695 33.1995 14.4091 32.4158 14.9785L25.3542 20.109C25.0037 20.3637 24.8571 20.815 24.9909 21.2271L27.6882 29.5285C27.9876 30.4498 26.9331 31.2159 26.1494 30.6465L19.0878 25.516C18.7373 25.2613 18.2627 25.2613 17.9122 25.516L10.8506 30.6465C10.0669 31.2159 9.01241 30.4498 9.31176 29.5285L12.0091 21.2271C12.1429 20.815 11.9963 20.3637 11.6458 20.109L4.58417 14.9785C3.80046 14.4091 4.20323 13.1695 5.17196 13.1695H13.9006C14.3338 13.1695 14.7178 12.8905 14.8516 12.4785L17.5489 4.17705Z" fill="#FFCC47"/>
<path d="M53.5489 4.17705C53.8483 3.25574 55.1517 3.25574 55.4511 4.17705L58.1484 12.4785C58.2822 12.8905 58.6662 13.1695 59.0994 13.1695H67.828C68.7968 13.1695 69.1995 14.4091 68.4158 14.9785L61.3542 20.109C61.0037 20.3637 60.8571 20.815 60.9909 21.2271L63.6882 29.5285C63.9876 30.4498 62.9331 31.2159 62.1494 30.6465L55.0878 25.516C54.7373 25.2613 54.2627 25.2613 53.9122 25.516L46.8506 30.6465C46.0669 31.2159 45.0124 30.4498 45.3118 29.5285L48.0091 21.2271C48.1429 20.815 47.9963 20.3637 47.6458 20.109L40.5842 14.9785C39.8005 14.4091 40.2032 13.1695 41.172 13.1695H49.9006C50.3338 13.1695 50.7178 12.8905 50.8516 12.4785L53.5489 4.17705Z" fill="#FFCC47"/>
<path d="M89.5489 4.17705C89.8483 3.25574 91.1517 3.25574 91.4511 4.17705L94.1484 12.4785C94.2822 12.8905 94.6662 13.1695 95.0994 13.1695H103.828C104.797 13.1695 105.2 14.4091 104.416 14.9785L97.3542 20.109C97.0037 20.3637 96.8571 20.815 96.9909 21.2271L99.6882 29.5285C99.9876 30.4498 98.9331 31.2159 98.1494 30.6465L91.0878 25.516C90.7373 25.2613 90.2627 25.2613 89.9122 25.516L82.8506 30.6465C82.0669 31.2159 81.0124 30.4498 81.3118 29.5285L84.0091 21.2271C84.1429 20.815 83.9963 20.3637 83.6458 20.109L76.5842 14.9785C75.8005 14.4091 76.2032 13.1695 77.172 13.1695H85.9006C86.3338 13.1695 86.7178 12.8905 86.8516 12.4785L89.5489 4.17705Z" fill="#FFCC47"/>
<path d="M125.549 4.17705C125.848 3.25574 127.152 3.25574 127.451 4.17705L130.148 12.4785C130.282 12.8905 130.666 13.1695 131.099 13.1695H139.828C140.797 13.1695 141.2 14.4091 140.416 14.9785L133.354 20.109C133.004 20.3637 132.857 20.815 132.991 21.2271L135.688 29.5285C135.988 30.4498 134.933 31.2159 134.149 30.6465L127.088 25.516C126.737 25.2613 126.263 25.2613 125.912 25.516L118.851 30.6465C118.067 31.2159 117.012 30.4498 117.312 29.5285L120.009 21.2271C120.143 20.815 119.996 20.3637 119.646 20.109L112.584 14.9785C111.8 14.4091 112.203 13.1695 113.172 13.1695H121.901C122.334 13.1695 122.718 12.8905 122.852 12.4785L125.549 4.17705Z" fill="#FFCC47"/>
<path d="M161.549 4.17705C161.848 3.25574 163.152 3.25574 163.451 4.17705L166.148 12.4785C166.282 12.8905 166.666 13.1695 167.099 13.1695H175.828C176.797 13.1695 177.2 14.4091 176.416 14.9785L169.354 20.109C169.004 20.3637 168.857 20.815 168.991 21.2271L171.688 29.5285C171.988 30.4498 170.933 31.2159 170.149 30.6465L163.088 25.516C162.737 25.2613 162.263 25.2613 161.912 25.516L154.851 30.6465C154.067 31.2159 153.012 30.4498 153.312 29.5285L156.009 21.2271C156.143 20.815 155.996 20.3637 155.646 20.109L148.584 14.9785C147.8 14.4091 148.203 13.1695 149.172 13.1695H157.901C158.334 13.1695 158.718 12.8905 158.852 12.4785L161.549 4.17705Z" fill="#FFCC47"/>
</svg>
